<?xml version="1.0" encoding="UTF-8"?>
<svg id="Camada_1" data-name="Camada 1" xmlns="http://www.w3.org/2000/svg" viewBox="0 0 1024 1024">
  <defs>
    <style>
      .cls-1 {
        fill: red;
        font-family: HelveticaNeue-UltraLightItalic, 'Helvetica Neue';
        font-size: 76px;
        font-style: italic;
        font-weight: 100;
        letter-spacing: .5em;
      }

      .cls-2 {
        fill: #7a7b7b;
      }
    </style>
  </defs>
  <path class="cls-2" d="M769.24,762.33l41.98-116.04c1.59-1.62,15.26-.18,17.96-.15,1.56.02,3.24-.94,5-.9,3.36.07,6.18,2.26,9.48.09,1.64,2.11-8.44,19.71-5.49,23.99,11.31-18.39,28.98-31.03,51.47-24.48l-9.51,27.5-1.9.94c-49.94-8.31-57.7,56.62-73.49,89.65-.69.5-1.33-.61-1.53-.61h-33.97Z"/>
  <path class="cls-2" d="M760.26,648.32c-4.77-.48-8.87-2.81-13.27-3.71-39.53-8.1-81.69,18.84-98.51,53.84-15.24,31.72-13.29,72.41,31.84,67.87,15.8-1.59,31.02-13.9,41.46-24.99l-9.97,20.52c-.26,3.05,1.03.5,1.48.48,10.61-.49,21.34.36,31.97,0l43.46-113.99c-9.17-.67-19.44.88-28.46-.02ZM686.38,737.26c-14.91-2.32-7.29-24.88-2.73-33.6,11.15-21.33,34.68-41.23,60.09-33.31-6.08,24.36-25.69,71.84-57.37,66.91Z"/>
  <path class="cls-2" d="M573.63,613.52c-16.2,9.59-27.03,22.66-38.51,36.46-16.22,19.5-26.08,62.68-16.62,86.33,12.86,32.14,58.9,37.7,87.4,25.52,13.13-5.61,22.49-21.48,21.96-35.5-41.75,25.07-89.57,11.39-70.93-45.51,13.97-42.67,61.91-63.82,103.87-49.5l12.62-28.01c-31.4-12.7-71.04-6.81-99.79,10.22Z"/>
  <path class="cls-2" d="M306.99,643.62c16.59-1.51,38.67,4.73,47.33,20.04,17.57,31.05-10.39,74.52-37.21,91.08-50.9,31.44-112.02,1.51-79.55-61.63,13.21-25.68,40.11-46.82,69.44-49.5ZM303.96,669.59c-19.52,2.86-39.9,30.92-42.46,49.5-2.7,19.59,8.78,27.69,26.99,21.02,19.3-7.08,44.22-43.18,33.89-63.47-3.6-7.08-11.23-8.09-18.42-7.04Z"/>
  <path class="cls-2" d="M470.58,643.28c-20.71-.86-35.67,13.61-47.01,29.04l6.5-26.99-33.03.43-59.88,162.57h35.47l17.47-43.56c1.84-1.16,5.8,1.33,8.49,1.57,40.8,3.62,79.71-19.5,95.88-57.04,10.76-24.98,11.78-64.53-23.89-66.01ZM465.17,692.95c-7.03,28.71-35.19,58.28-67.07,51.36,8.4-24.76,19.5-65.05,47.41-74.05,19.55-6.3,23.79,5.81,19.66,22.68Z"/>
  <polygon class="cls-2" points="147.85 597.33 134.36 630.33 187.31 630.33 139.36 762.33 176.32 762.33 225.41 630.46 270.09 630.19 283.22 597.33 147.85 597.33"/>
  <ellipse class="cls-2" cx="501.38" cy="357.9" rx="32.5" ry="32.53"/>
  <path class="cls-2" d="M502.07,129.94c-124.37,0-225.19,100.92-225.19,225.4s100.82,225.4,225.19,225.4,225.19-100.92,225.19-225.4-100.82-225.4-225.19-225.4ZM333.99,274.65c8.49-19.16,30.56-48.39,46.47-61.99,41.85-35.77,105.15-49.39,158.69-39.02,53.27,10.32,99.72,43.54,125.87,91.01,10.32,18.73,23.74,46.7-8.79,49.54-16.77,1.46-41.88.03-58.81-1.88-44.55-5.04-66.52-39.72-116.4-28.5-24.76,5.57-43.85,23.04-69.7,27.23-15.16,2.46-60.98,6.12-73.93,1.55-16.47-5.8-8.47-26.48-3.39-37.95ZM644.05,351.01c-20.12,4.01-40.87,5.14-61.12,8.32l-1-22.01c7.79.35,15.72,1.56,23.49,1.99,16.09.9,32.9.63,48.92,2.03,2.55.22,6.55.7,8.5,2.5.86,4.02-15.69,6.55-18.79,7.17ZM420.08,337.32l-2.6,22.07c-20.96-3.84-42.76-4.59-63.53-9.36-2.2-.51-11.21-2.54-11.77-4.23-1.04-3.15,3.37-4.07,5.57-4.38,15.57-2.22,35.67-1.12,51.84-2.11,6.72-.41,13.74-1.6,20.49-1.99ZM469.77,526.56c-3.98,13.46-21.99,7.3-31.66,4.23-52.56-16.68-100.81-72.95-115.42-125.46-2.69-9.65-9.53-32.35,6.98-32.8,10.21-.28,29.75,4.98,40.48,7.29,19.13,4.11,62.28,12.57,75.56,25.87,13.12,13.13,18.34,45.29,21.02,63.45,2.01,13.6,6.62,45.31,3.04,57.42ZM503.99,492.82c-2.25,4.69.92,17.74-5.98,17.51l-5.99-74h14.98s-3.01,56.49-3.01,56.49ZM492.77,316.58c63.46-8.56,69.38,73.17,17.46,83.48-62.38,12.39-71.58-76.18-17.46-83.48ZM570.92,527.81c-10.94,4.23-34.24,14.02-38.26-2.67-2.26-9.37,1.93-42.88,3.58-54.04,3.66-24.78,9.85-60.46,33.66-73.31,17.72-9.56,81.57-24.84,101.72-25.18,19.36-.32,11.12,26.17,7.5,37.5-16.11,50.47-58.52,98.51-108.2,117.7Z"/>
  <text class="cls-1" transform="translate(267.43 894.6)"><tspan x="0" y="0">MOTORS</tspan></text>
</svg>