<?xml version="1.0" encoding="UTF-8"?>
<svg id="Camada_1" data-name="Camada 1" xmlns="http://www.w3.org/2000/svg" viewBox="0 0 1024 1024">
  <defs>
    <style>
      .cls-1 {
        fill: #7a7b7b;
      }
    </style>
  </defs>
  <ellipse class="cls-1" cx="510.51" cy="517.53" rx="70.18" ry="70.25"/>
  <path class="cls-1" d="M512,25.25C243.43,25.25,25.71,243.19,25.71,512s217.72,486.75,486.29,486.75,486.29-217.94,486.29-486.75S780.57,25.25,512,25.25ZM149.03,337.75c18.33-41.38,65.99-104.5,100.35-133.87,90.37-77.24,227.07-106.66,342.69-84.26,115.04,22.29,215.34,94.02,271.81,196.53,22.29,40.45,51.27,100.85-18.98,106.98-36.21,3.15-90.44.06-127-4.06-96.2-10.88-143.65-85.77-251.36-61.55-53.47,12.03-94.69,49.75-150.52,58.8-32.74,5.31-131.69,13.22-159.65,3.35-35.57-12.53-18.29-57.18-7.32-81.95l-.02.02ZM818.6,502.65c-43.45,8.66-88.26,11.1-131.99,17.97l-2.16-47.53c16.82.76,33.95,3.37,50.73,4.3,34.75,1.94,71.05,1.36,105.64,4.38,5.51.48,14.14,1.51,18.36,5.4,1.86,8.68-33.88,14.14-40.58,15.48ZM334.94,473.09l-5.61,47.66c-45.26-8.29-92.34-9.91-137.19-20.21-4.75-1.1-24.21-5.49-25.42-9.13-2.25-6.8,7.28-8.79,12.03-9.46,33.62-4.79,77.03-2.42,111.95-4.56,14.51-.89,29.67-3.46,44.25-4.3ZM442.25,881.75h0c-8.59,29.07-47.49,15.76-68.37,9.13-113.5-36.02-217.7-157.53-249.25-270.93-5.81-20.84-20.58-69.86,15.07-70.83,22.05-.6,64.24,10.75,87.42,15.74,41.31,8.88,134.49,27.14,163.17,55.87,28.33,28.35,39.6,97.8,45.39,137.02,4.34,29.37,14.3,97.85,6.56,124ZM516.15,808.89c-4.86,10.13,1.99,38.31-12.91,37.81l-12.94-159.8h32.35l-6.5,121.99ZM491.92,428.3c137.04-18.49,149.82,158.01,37.7,180.27-134.71,26.76-154.58-164.51-37.7-180.27ZM660.68,884.45c-23.62,9.13-73.94,30.28-82.62-5.77-4.88-20.23,4.17-92.6,7.73-116.7,7.9-53.51,21.27-130.56,72.69-158.31,38.27-20.64,176.15-53.64,219.66-54.38,41.81-.69,24.01,56.51,16.2,80.98-34.79,108.99-126.37,212.73-233.66,254.17Z"/>
</svg>